<svg width="40" height="40" viewBox="0 0 40 40" fill="none" xmlns="http://www.w3.org/2000/svg">
<path d="M0 20C0 8.95431 8.95431 0 20 0C31.0457 0 40 8.95431 40 20C40 31.0457 31.0457 40 20 40C8.95431 40 0 31.0457 0 20Z" fill="#7D52F4"/>
<path d="M24.0273 5.26449L20.9578 4.44482L18.3712 14.0656L16.0359 5.3799L12.9664 6.19957L15.4895 15.5838L9.20501 9.32069L6.95801 11.5601L13.8513 18.43L5.2668 16.1376L4.44434 19.1966L13.824 21.7013C13.7166 21.2397 13.6598 20.7588 13.6598 20.2646C13.6598 16.7664 16.5053 13.9306 20.0153 13.9306C23.5254 13.9306 26.3708 16.7664 26.3708 20.2646C26.3708 20.7556 26.3147 21.2336 26.2086 21.6925L34.733 23.9688L35.5554 20.9098L26.1385 18.3951L34.7236 16.1025L33.9011 13.0435L24.4845 15.5581L30.769 9.29498L28.522 7.05561L21.7243 13.8302L24.0273 5.26449Z" fill="url(#paint0_linear_509_8795)" fill-opacity="0.88"/>
<path d="M26.2003 21.7283C25.9372 22.8371 25.3816 23.8332 24.6193 24.6313L30.7948 30.7859L33.0418 28.5466L26.2003 21.7283Z" fill="url(#paint1_linear_509_8795)" fill-opacity="0.88"/>
<path d="M24.5569 24.6955C23.7854 25.4808 22.8104 26.0669 21.717 26.3689L23.9642 34.7269L27.0336 33.9072L24.5569 24.6955Z" fill="url(#paint2_linear_509_8795)" fill-opacity="0.88"/>
<path d="M21.6024 26.3995C21.0951 26.5294 20.5634 26.5985 20.0155 26.5985C19.4285 26.5985 18.86 26.5192 18.3203 26.3707L16.0711 34.7363L19.1406 35.5559L21.6024 26.3995Z" fill="url(#paint3_linear_509_8795)" fill-opacity="0.88"/>
<path d="M18.2118 26.3401C17.1351 26.0231 16.1774 25.4295 15.4217 24.642L9.23094 30.8117L11.4779 33.0511L18.2118 26.3401Z" fill="url(#paint4_linear_509_8795)" fill-opacity="0.88"/>
<path d="M15.3699 24.5874C14.627 23.7949 14.086 22.8121 13.8284 21.7204L5.27621 24.0042L6.09866 27.0632L15.3699 24.5874Z" fill="url(#paint5_linear_509_8795)" fill-opacity="0.88"/>
<defs>
<linearGradient id="paint0_linear_509_8795" x1="19.9999" y1="4.44482" x2="19.9999" y2="51.6203" gradientUnits="userSpaceOnUse">
<stop offset="0.313079" stop-color="white"/>
<stop offset="1" stop-color="white" stop-opacity="0"/>
</linearGradient>
<linearGradient id="paint1_linear_509_8795" x1="19.9999" y1="4.44482" x2="19.9999" y2="51.6203" gradientUnits="userSpaceOnUse">
<stop offset="0.313079" stop-color="white"/>
<stop offset="1" stop-color="white" stop-opacity="0"/>
</linearGradient>
<linearGradient id="paint2_linear_509_8795" x1="19.9999" y1="4.44482" x2="19.9999" y2="51.6203" gradientUnits="userSpaceOnUse">
<stop offset="0.313079" stop-color="white"/>
<stop offset="1" stop-color="white" stop-opacity="0"/>
</linearGradient>
<linearGradient id="paint3_linear_509_8795" x1="19.9999" y1="4.44482" x2="19.9999" y2="51.6203" gradientUnits="userSpaceOnUse">
<stop offset="0.313079" stop-color="white"/>
<stop offset="1" stop-color="white" stop-opacity="0"/>
</linearGradient>
<linearGradient id="paint4_linear_509_8795" x1="19.9999" y1="4.44482" x2="19.9999" y2="51.6203" gradientUnits="userSpaceOnUse">
<stop offset="0.313079" stop-color="white"/>
<stop offset="1" stop-color="white" stop-opacity="0"/>
</linearGradient>
<linearGradient id="paint5_linear_509_8795" x1="19.9999" y1="4.44482" x2="19.9999" y2="51.6203" gradientUnits="userSpaceOnUse">
<stop offset="0.313079" stop-color="white"/>
<stop offset="1" stop-color="white" stop-opacity="0"/>
</linearGradient>
</defs>
</svg>
